<?xml version="1.0" standalone="no"?>
<!DOCTYPE svg PUBLIC "-//W3C//DTD SVG 20010904//EN"
 "http://www.w3.org/TR/2001/REC-SVG-20010904/DTD/svg10.dtd">
<svg version="1.0" xmlns="http://www.w3.org/2000/svg"
 width="589.000000pt" height="397.000000pt" viewBox="0 0 589.000000 397.000000"
 preserveAspectRatio="xMidYMid meet">

<g transform="translate(0.000000,397.000000) scale(0.100000,-0.100000)"
fill="#000000" stroke="none">
<path d="M1700 2899 l0 -570 23 3 22 3 2 365 c1 201 2 445 2 543 l1 177 1090
0 1090 0 0 -1090 c0 -600 -3 -1090 -7 -1090 -5 -1 -249 -2 -543 -3 -528 -2
-535 -2 -535 -22 0 -20 8 -20 568 -23 l567 -2 0 1140 0 1140 -1140 0 -1140 0
0 -571z"/>
<path d="M2694 2951 c-2 -2 -4 -17 -4 -33 0 -26 2 -28 43 -28 24 0 52 -6 63
-14 18 -14 19 -30 19 -424 0 -396 -1 -412 -20 -438 -11 -14 -40 -34 -65 -44
-39 -15 -45 -22 -48 -50 -3 -28 -1 -32 15 -25 10 4 100 10 201 13 l182 5 0 23
c0 13 0 27 0 32 0 4 -27 7 -60 8 -90 1 -89 -1 -89 244 0 318 15 607 33 635 8
13 34 29 58 37 34 12 44 20 46 41 l3 26 -186 -2 c-103 -1 -188 -4 -191 -6z"/>
<path d="M1754 2100 c30 -33 68 -80 85 -103 34 -50 91 -146 91 -153 0 -3 -15
-3 -32 0 -28 5 -29 4 -10 -4 12 -5 22 -12 22 -15 0 -2 -62 -36 -137 -74 -142
-72 -146 -82 -24 -56 106 22 183 52 208 80 12 14 26 25 32 25 5 0 12 14 16 30
8 38 -23 94 -97 175 -49 54 -180 155 -201 155 -5 0 16 -27 47 -60z"/>
<path d="M1500 2092 c97 -68 217 -192 188 -192 -7 -1 -2 -7 11 -14 l25 -14
-50 -30 c-144 -90 -166 -104 -162 -108 7 -6 196 50 241 71 20 9 39 26 42 37 5
15 13 18 38 14 26 -4 24 -3 -8 8 -34 11 -40 17 -43 44 -2 23 -17 43 -55 77
-53 46 -169 108 -222 119 l-30 6 25 -18z"/>
<path d="M1970 2095 c0 -3 15 -25 34 -48 18 -23 45 -63 60 -88 27 -48 89 -219
82 -227 -3 -2 -26 8 -53 23 -26 14 -40 20 -29 13 65 -45 66 -42 -27 -65 -47
-12 -114 -32 -149 -45 -80 -29 -60 -33 126 -20 102 7 141 14 155 26 9 9 21 16
26 16 13 0 114 -84 115 -96 0 -14 -242 -37 -288 -28 -18 4 -32 4 -32 1 0 -11
100 -36 205 -52 92 -13 109 -13 146 -1 24 8 47 12 52 9 6 -3 7 -1 3 5 -4 7 0
22 8 34 9 12 16 33 16 46 0 43 -30 145 -60 207 -29 59 -99 150 -84 110 44
-123 82 -325 61 -325 -6 0 -35 20 -65 45 -31 25 -62 50 -70 54 -11 6 -12 13
-3 29 37 70 -38 226 -159 328 -55 46 -70 57 -70 49z"/>
<path d="M1340 2040 c0 -3 33 -28 74 -53 40 -26 79 -54 86 -62 11 -13 6 -15
-32 -15 -24 0 -61 9 -83 20 -47 24 -101 25 -201 5 -78 -17 -223 -62 -237 -74
-4 -4 18 -4 50 1 32 5 132 14 223 19 91 5 193 11 228 15 34 3 62 2 62 -3 0 -5
-47 -33 -105 -63 -58 -29 -104 -55 -102 -57 8 -7 197 36 240 55 24 11 53 30
65 42 20 21 20 23 3 54 -12 21 -38 41 -82 63 -64 31 -189 67 -189 53z"/>
<path d="M1648 1893 c7 -3 16 -2 19 1 4 3 -2 6 -13 5 -11 0 -14 -3 -6 -6z"/>
<path d="M2410 1496 c0 -2 8 -10 18 -17 15 -13 16 -12 3 4 -13 16 -21 21 -21
13z"/>
<path d="M2540 1320 c6 -11 13 -20 16 -20 2 0 0 9 -6 20 -6 11 -13 20 -16 20
-2 0 0 -9 6 -20z"/>
<path d="M2570 1270 c6 -11 13 -20 16 -20 2 0 0 9 -6 20 -6 11 -13 20 -16 20
-2 0 0 -9 6 -20z"/>
<path d="M2590 1231 c0 -6 4 -13 10 -16 6 -3 7 1 4 9 -7 18 -14 21 -14 7z"/>
<path d="M2893 902 c-35 -2 -63 -7 -63 -12 0 -6 9 -10 19 -10 10 0 22 -7 25
-16 9 -22 7 -327 -2 -340 -4 -6 -17 -16 -30 -23 -37 -20 -15 -31 59 -31 53 0
69 3 69 14 0 8 -10 16 -22 18 -23 3 -23 5 -26 176 l-2 173 25 23 c32 29 27 32
-52 28z"/>
<path d="M1595 890 c3 -5 14 -10 25 -10 10 0 21 -7 24 -16 3 -9 6 -85 6 -171
l0 -155 -30 -28 c-16 -15 -30 -31 -30 -34 0 -3 36 -6 80 -6 64 0 80 3 80 15 0
9 -9 15 -24 15 -14 0 -28 6 -33 13 -11 17 -3 328 8 350 5 9 16 17 24 17 7 0
17 5 20 10 4 6 -23 10 -75 10 -52 0 -79 -4 -75 -10z"/>
<path d="M3050 892 c0 -4 9 -13 20 -20 26 -16 22 -23 -57 -105 -35 -36 -63
-70 -63 -76 0 -17 137 -199 159 -210 24 -13 211 -15 211 -2 0 5 -11 12 -25 15
-18 5 -25 13 -25 32 0 52 15 64 81 64 63 0 68 -4 72 -55 1 -22 -4 -32 -23 -41
-20 -11 -21 -14 -8 -19 26 -10 121 -1 126 13 2 6 -3 12 -11 12 -23 0 -40 36
-82 173 -21 70 -42 130 -47 133 -21 13 -45 -24 -93 -147 -30 -76 -61 -140 -74
-150 -37 -30 -72 -9 -151 95 -38 51 -70 97 -70 103 0 5 41 49 90 97 50 48 90
89 90 91 0 3 -27 5 -60 5 -33 0 -60 -3 -60 -8z m334 -211 c9 -31 12 -59 7 -64
-4 -4 -26 -7 -47 -5 -46 4 -47 15 -14 93 24 56 32 52 54 -24z"/>
<path d="M1800 764 c0 -27 4 -43 10 -39 6 3 10 12 10 20 0 23 30 45 60 45 16
0 30 -4 32 -10 2 -5 2 -68 0 -140 -3 -128 -4 -131 -28 -140 -13 -5 -24 -14
-24 -20 0 -16 142 -9 148 8 2 7 -6 12 -22 12 -35 0 -40 26 -31 166 8 125 13
135 63 118 15 -5 29 -19 32 -32 5 -22 26 -33 24 -12 -1 6 -2 24 -2 40 l-2 30
-135 0 -135 0 0 -46z"/>
<path d="M2127 803 c-10 -9 -9 -83 1 -83 4 0 14 15 22 33 12 27 21 33 53 35
l37 3 0 -133 c0 -73 -4 -138 -8 -144 -4 -7 -15 -13 -25 -15 -10 -2 -18 -8 -18
-14 1 -6 31 -10 71 -10 68 0 95 14 48 25 -23 6 -23 8 -23 145 l0 140 35 0 c30
0 37 -5 50 -32 19 -41 30 -42 30 -4 0 61 -1 61 -139 61 -70 0 -131 -3 -134 -7z"/>
<path d="M2470 802 c0 -5 9 -12 20 -15 19 -5 20 -14 20 -132 0 -123 -1 -126
-26 -150 -32 -30 -20 -38 47 -33 39 3 71 28 35 28 -13 0 -16 12 -16 61 0 59 0
60 26 57 21 -2 35 -17 63 -68 38 -67 71 -90 107 -76 16 6 14 9 -12 25 -17 10
-45 42 -64 70 l-33 52 37 38 c28 28 36 45 36 72 0 60 -25 73 -141 77 -60 3
-99 0 -99 -6z m175 -37 c44 -43 23 -105 -40 -121 -46 -11 -55 0 -55 69 0 35 3
67 7 70 15 16 65 6 88 -18z"/>
<path d="M3580 801 c0 -5 9 -11 20 -14 19 -5 20 -14 20 -132 0 -123 -1 -126
-26 -150 -32 -30 -20 -38 47 -33 39 3 71 28 35 28 -15 0 -18 10 -18 65 0 51 2
55 27 55 20 0 30 -10 51 -51 33 -65 66 -99 98 -99 34 0 40 15 11 28 -21 10
-95 106 -95 123 0 4 16 23 35 42 50 50 48 105 -6 132 -31 17 -199 21 -199 6z
m175 -36 c54 -53 8 -136 -66 -120 -28 6 -29 8 -29 69 0 35 3 66 7 69 15 16 65
6 88 -18z"/>
<path d="M3910 765 c0 -25 2 -45 5 -45 3 0 11 16 19 35 13 31 19 35 50 35 l36
0 0 -140 c0 -140 0 -140 -25 -152 -44 -20 -27 -29 48 -26 67 3 97 18 52 27
-11 2 -23 8 -27 15 -9 14 -10 152 -2 224 6 49 8 52 35 52 29 0 59 -23 59 -45
0 -8 5 -17 10 -20 6 -4 10 12 10 39 l0 46 -135 0 -135 0 0 -45z"/>
</g>
</svg>
